<?xml version="1.0" encoding="UTF-8"?>
<svg xmlns="http://www.w3.org/2000/svg" xmlns:xlink="http://www.w3.org/1999/xlink" viewBox="0 0 200 200">
  <defs>
    <linearGradient id="cloudGradient" x1="0%" y1="0%" x2="100%" y2="100%">
      <stop offset="0%" style="stop-color:#4ac7ee" />
      <stop offset="100%" style="stop-color:#263b96" />
    </linearGradient>
  </defs>
  <path d="M 60,110 Q 40,110 40,90 T 60,70 Q 60,50 80,50 T 100,70 Q 110,60 125,60 T 150,75 Q 165,75 165,90 T 150,105 Z"
    fill="none" stroke="url(#cloudGradient)" stroke-width="6" stroke-linejoin="round" />
  <path
    d="M 60,110 L 150,110 Q 165,110 165,90 Q 165,75 150,75 Q 150,60 125,60 Q 110,60 100,70 Q 100,50 80,50 Q 60,50 60,70 Q 40,70 40,90 Q 40,110 60,110"
    fill="url(#cloudGradient)" opacity="0.2" />
</svg>