<?xml version="1.0" encoding="UTF-8"?>
<svg id="Layer_2" data-name="Layer 2" xmlns="http://www.w3.org/2000/svg" xmlns:xlink="http://www.w3.org/1999/xlink" viewBox="0 0 300.53 49.66">
  <defs>
    <style>
      .cls-1 {
        fill: url(#linear-gradient-2);
      }

      .cls-2 {
        fill: url(#linear-gradient-10);
      }

      .cls-3 {
        fill: url(#linear-gradient-4);
      }

      .cls-4 {
        fill: url(#linear-gradient-3);
      }

      .cls-5 {
        fill: url(#linear-gradient-5);
      }

      .cls-6 {
        fill: url(#linear-gradient-8);
      }

      .cls-7 {
        fill: url(#linear-gradient-7);
      }

      .cls-8 {
        fill: url(#linear-gradient-9);
      }

      .cls-9 {
        fill: url(#linear-gradient-6);
      }

      .cls-10 {
        fill: url(#linear-gradient);
      }
    </style>
    <linearGradient id="linear-gradient" x1="301.47" y1="83.99" x2="-148.59" y2="-7.6" gradientUnits="userSpaceOnUse">
      <stop offset="0" stop-color="#4ac7ee"/>
      <stop offset="1" stop-color="#263b96"/>
    </linearGradient>
    <linearGradient id="linear-gradient-2" x1="303.25" y1="75.21" x2="-146.8" y2="-16.39" xlink:href="#linear-gradient"/>
    <linearGradient id="linear-gradient-3" x1="304.18" y1="70.67" x2="-145.88" y2="-20.93" xlink:href="#linear-gradient"/>
    <linearGradient id="linear-gradient-4" x1="305.81" y1="62.66" x2="-144.25" y2="-28.94" xlink:href="#linear-gradient"/>
    <linearGradient id="linear-gradient-5" x1="307.02" y1="56.69" x2="-143.03" y2="-34.9" xlink:href="#linear-gradient"/>
    <linearGradient id="linear-gradient-6" x1="308.57" y1="49.11" x2="-141.49" y2="-42.49" xlink:href="#linear-gradient"/>
    <linearGradient id="linear-gradient-7" x1="305.59" y1="63.75" x2="-144.47" y2="-27.85" xlink:href="#linear-gradient"/>
    <linearGradient id="linear-gradient-8" x1="308.89" y1="47.52" x2="-141.17" y2="-44.07" xlink:href="#linear-gradient"/>
    <linearGradient id="linear-gradient-9" x1="310.07" y1="41.72" x2="-139.98" y2="-49.88" xlink:href="#linear-gradient"/>
    <linearGradient id="linear-gradient-10" x1="311.16" y1="36.36" x2="-138.89" y2="-55.24" xlink:href="#linear-gradient"/>
  </defs>
  <g id="Layer_1-2" data-name="Layer 1">
    <g>
      <path class="cls-10" d="M0,46.8V2.67c0-.62.25-1.16.77-1.6.51-.44,1.17-.67,1.97-.67h13c4.44,0,7.99,1.18,10.63,3.53,2.64,2.36,3.96,6.07,3.96,11.13v.53c0,5.07-1.37,8.79-4.1,11.17-2.73,2.38-6.37,3.57-10.9,3.57H7.07v16.47c0,.71-.35,1.28-1.03,1.7-.69.42-1.52.63-2.5.63s-1.76-.21-2.47-.63c-.71-.42-1.07-.99-1.07-1.7ZM7.07,24.73h8.27c2.53,0,4.49-.72,5.87-2.17,1.38-1.44,2.07-3.61,2.07-6.5v-.8c0-2.89-.69-5.04-2.07-6.47-1.38-1.42-3.33-2.13-5.87-2.13H7.07v18.07Z"/>
      <path class="cls-1" d="M36.13,34.67V2.67c0-.76.34-1.32,1.03-1.7.69-.38,1.52-.57,2.5-.57s1.81.19,2.5.57c.69.38,1.03.94,1.03,1.7v32c0,2.89.71,5.04,2.13,6.47,1.42,1.42,3.42,2.13,6,2.13,5.47,0,8.2-2.87,8.2-8.6V2.67c0-.76.34-1.32,1.03-1.7.69-.38,1.52-.57,2.5-.57s1.81.19,2.5.57c.69.38,1.03.94,1.03,1.7v32c0,5.11-1.39,8.87-4.17,11.27s-6.48,3.6-11.1,3.6-8.26-1.2-11.03-3.6c-2.78-2.4-4.17-6.16-4.17-11.27Z"/>
      <path class="cls-4" d="M75.2,46.8V2.67c0-.76.34-1.32,1.03-1.7.69-.38,1.52-.57,2.5-.57s1.81.19,2.5.57c.69.38,1.03.94,1.03,1.7v40.2h17.33c.67,0,1.19.31,1.57.93.38.62.57,1.36.57,2.2s-.19,1.58-.57,2.2c-.38.62-.9.93-1.57.93h-21.27c-.84,0-1.58-.21-2.2-.63-.62-.42-.93-.99-.93-1.7Z"/>
      <path class="cls-3" d="M104.53,41.8c0-.84.31-1.69.93-2.53.62-.84,1.33-1.27,2.13-1.27.49,0,1.08.29,1.77.85.69.57,1.37,1.18,2.03,1.84.67.66,1.68,1.28,3.03,1.85,1.35.57,2.88.85,4.57.85,2.53,0,4.57-.6,6.1-1.81,1.53-1.21,2.3-2.97,2.3-5.3,0-2.14-.75-3.93-2.23-5.36-1.49-1.43-3.29-2.57-5.4-3.42-2.11-.85-4.23-1.76-6.37-2.75-2.13-.98-3.95-2.46-5.43-4.42-1.49-1.97-2.23-4.42-2.23-7.37,0-2.35.46-4.39,1.37-6.12.91-1.73,2.14-3.06,3.7-3.99s3.19-1.61,4.9-2.03c1.71-.42,3.52-.63,5.43-.63,1.2,0,2.46.08,3.77.23,1.31.15,2.61.41,3.9.76s2.36.86,3.2,1.52c.84.66,1.27,1.41,1.27,2.24s-.27,1.68-.8,2.53c-.53.85-1.25,1.27-2.13,1.27-.45,0-1.04-.21-1.8-.64-.76-.42-1.77-.85-3.03-1.27-1.27-.42-2.72-.64-4.37-.64-2.53,0-4.56.5-6.07,1.51-1.51,1.01-2.27,2.54-2.27,4.59,0,1.34.4,2.49,1.2,3.45.8.96,1.83,1.75,3.1,2.38,1.27.63,2.68,1.24,4.23,1.84,1.55.6,3.1,1.31,4.63,2.11,1.53.8,2.93,1.73,4.2,2.78,1.27,1.05,2.3,2.49,3.1,4.32.8,1.83,1.2,3.96,1.2,6.37,0,4.59-1.39,8.09-4.17,10.5-2.78,2.41-6.46,3.61-11.03,3.61-4.09,0-7.57-.85-10.43-2.57-2.87-1.71-4.3-3.48-4.3-5.3Z"/>
      <path class="cls-5" d="M137.68,46.2c0-.27.02-.47.07-.6l13.24-43.21c.57-1.6,2.15-2.4,4.74-2.4s4.24.74,4.81,2.23l13.2,43.2c.09.28.13.49.13.63,0,.84-.52,1.56-1.55,2.16-1.04.6-2.13.91-3.29.91-1.4,0-2.27-.48-2.61-1.45l-2.76-9.55h-16.39l-2.73,9.52c-.31.98-1.13,1.48-2.46,1.48-1.06,0-2.06-.29-2.99-.86-.93-.58-1.4-1.26-1.4-2.06ZM148.86,32.53h13.23l-6.68-22.88-6.55,22.88Z"/>
      <path class="cls-9" d="M178.59,46.8V2.67c0-.62.22-1.16.67-1.6.44-.44,1-.67,1.67-.67h12.67c10.22,0,15.33,4.53,15.33,13.6,0,3.76-.84,6.72-2.53,8.86-1.69,2.15-3.98,3.57-6.87,4.28l9.33,17.57c.18.31.27.65.27,1,0,.89-.46,1.72-1.37,2.47-.91.76-1.88,1.14-2.9,1.14-1.16,0-2.09-.69-2.8-2.07l-9.73-19.13h-6.73v18.66c0,.71-.34,1.28-1.03,1.71-.69.42-1.52.64-2.5.64s-1.75-.21-2.43-.63c-.69-.42-1.03-.99-1.03-1.7ZM185.59,22.53h8c5.51,0,8.27-2.64,8.27-7.93s-2.76-7.93-8.27-7.93h-8v15.87Z"/>
      <path class="cls-7" d="M214.81,48.46c-.78-.71-1.16-1.58-1.16-2.6s.39-1.88,1.16-2.6,1.75-1.07,2.94-1.07c1.09,0,2.04.36,2.84,1.07.8.71,1.2,1.58,1.2,2.6s-.4,1.83-1.2,2.57c-.8.73-1.74,1.1-2.84,1.1-1.19,0-2.16-.36-2.94-1.07Z"/>
      <path class="cls-6" d="M228.12,47.69v-30.43c0-.43.21-.8.62-1.1.41-.31.93-.46,1.54-.46h8.12c3.12,0,5.62.83,7.51,2.48,1.88,1.65,2.82,4.24,2.82,7.76v13.08c0,3.52-.94,6.11-2.82,7.76-1.88,1.65-4.38,2.48-7.51,2.48h-8.12c-.61,0-1.13-.15-1.54-.46-.41-.31-.62-.67-.62-1.1ZM232.98,44.94h5.42c3.64,0,5.46-1.97,5.46-5.92v-13.08c0-3.95-1.82-5.92-5.46-5.92h-5.42v24.93Z"/>
      <path class="cls-8" d="M254.42,47.65v-30.34c0-.49.21-.88.64-1.17.43-.29.93-.44,1.52-.44h16.34c.52,0,.92.21,1.19.64.28.43.41.92.41,1.47,0,.61-.15,1.13-.44,1.56-.29.43-.68.64-1.17.64h-13.63v10.51h7.07c.49,0,.88.19,1.17.57.29.38.44.85.44,1.4,0,.49-.14.93-.41,1.31-.28.38-.67.57-1.19.57h-7.07v10.56h13.63c.49,0,.88.21,1.17.64.29.43.44.95.44,1.56,0,.55-.14,1.04-.41,1.47-.28.43-.67.64-1.19.64h-16.34c-.58,0-1.09-.14-1.52-.44-.43-.29-.64-.68-.64-1.17Z"/>
      <path class="cls-2" d="M276,17.72c0-.55.32-1.02.96-1.42.64-.4,1.33-.6,2.07-.6.92,0,1.48.34,1.7,1.01l7.57,26.17,7.53-26.17c.21-.67.76-1.01,1.64-1.01.73,0,1.42.2,2.08.6.65.4.98.87.98,1.42,0,.09-.03.23-.09.41l-9.08,29.75c-.15.52-.52.93-1.09,1.22-.58.29-1.23.44-1.96.44-1.68,0-2.71-.55-3.08-1.65l-9.18-29.75c-.03-.09-.05-.23-.05-.41Z"/>
    </g>
  </g>
</svg>