<?xml version="1.0" encoding="UTF-8"?>
<svg id="Layer_2" data-name="Layer 2" xmlns="http://www.w3.org/2000/svg" xmlns:xlink="http://www.w3.org/1999/xlink" viewBox="0 0 237.53 65.3">
  <defs>
    <style>
      .cls-1 {
        fill: url(#linear-gradient-2);
      }

      .cls-2 {
        fill: url(#linear-gradient-10);
      }

      .cls-3 {
        fill: url(#linear-gradient-4);
      }

      .cls-4 {
        fill: url(#linear-gradient-3);
      }

      .cls-5 {
        fill: url(#linear-gradient-5);
      }

      .cls-6 {
        fill: url(#linear-gradient-8);
      }

      .cls-7 {
        fill: url(#linear-gradient-7);
      }

      .cls-8 {
        fill: url(#linear-gradient-9);
      }

      .cls-9 {
        fill: url(#linear-gradient-6);
      }

      .cls-10 {
        fill: url(#linear-gradient);
      }
    </style>
    <linearGradient id="linear-gradient" x1="236.31" y1="51.34" x2="-54.33" y2="-9.43" gradientUnits="userSpaceOnUse">
      <stop offset="0" stop-color="#4ac7ee"/>
      <stop offset="1" stop-color="#263b96"/>
    </linearGradient>
    <linearGradient id="linear-gradient-2" x1="234.43" y1="60.34" x2="-56.22" y2="-.43" xlink:href="#linear-gradient"/>
    <linearGradient id="linear-gradient-3" x1="231.52" y1="74.26" x2="-59.13" y2="13.49" xlink:href="#linear-gradient"/>
    <linearGradient id="linear-gradient-4" x1="233.44" y1="65.04" x2="-57.2" y2="4.27" xlink:href="#linear-gradient"/>
    <linearGradient id="linear-gradient-5" x1="232.25" y1="70.77" x2="-58.4" y2="10" xlink:href="#linear-gradient"/>
    <linearGradient id="linear-gradient-6" x1="234.12" y1="61.79" x2="-56.52" y2="1.02" xlink:href="#linear-gradient"/>
    <linearGradient id="linear-gradient-7" x1="232.91" y1="67.59" x2="-57.73" y2="6.82" xlink:href="#linear-gradient"/>
    <linearGradient id="linear-gradient-8" x1="230.59" y1="78.67" x2="-60.05" y2="17.9" xlink:href="#linear-gradient"/>
    <linearGradient id="linear-gradient-9" x1="237.49" y1="45.7" x2="-53.15" y2="-15.07" xlink:href="#linear-gradient"/>
    <linearGradient id="linear-gradient-10" x1="239.33" y1="36.87" x2="-51.31" y2="-23.9" xlink:href="#linear-gradient"/>
  </defs>
  <g id="Layer_1-2" data-name="Layer 1">
    <g>
      <path class="cls-10" d="M156.87,32.58c-1.3-1.08-2.74-2.03-4.31-2.85-1.57-.83-3.16-1.55-4.75-2.17-1.6-.62-3.04-1.25-4.34-1.89-1.3-.64-2.36-1.46-3.18-2.44-.82-.99-1.23-2.17-1.23-3.54,0-2.11.78-3.68,2.33-4.71,1.55-1.03,3.62-1.55,6.22-1.55,1.69,0,3.18.22,4.48.65,1.3.44,2.34.87,3.11,1.31.78.44,1.39.65,1.85.65.91,0,1.64-.44,2.19-1.31.55-.87.82-1.73.82-2.59s-.43-1.62-1.3-2.3c-.87-.68-1.96-1.19-3.28-1.56-1.32-.36-2.66-.62-4-.78-1.35-.16-2.63-.24-3.86-.24-1.96,0-3.82.22-5.57.65-1.76.43-3.43,1.13-5.03,2.08-1.6.96-2.86,2.32-3.8,4.09-.94,1.77-1.4,3.87-1.4,6.28,0,3.03.76,5.55,2.29,7.56,1.53,2.02,3.39,3.53,5.57,4.54,2.19,1.01,4.37,1.95,6.53,2.82,2.16.87,4.01,2.04,5.54,3.51,1.53,1.47,2.29,3.3,2.29,5.5,0,2.38-.79,4.2-2.36,5.43-1.57,1.24-3.66,1.86-6.26,1.86-1.73,0-3.3-.29-4.68-.88-1.39-.58-2.43-1.22-3.11-1.89-.68-.68-1.38-1.31-2.09-1.89-.71-.58-1.31-.88-1.81-.88-.82,0-1.55.43-2.19,1.3-.64.87-.96,1.73-.96,2.6,0,1.87,1.47,3.68,4.41,5.44,2.94,1.76,6.51,2.63,10.7,2.63,4.7,0,8.47-1.23,11.32-3.7,2.85-2.47,4.27-6.06,4.27-10.77,0-2.47-.41-4.65-1.23-6.53-.82-1.88-1.88-3.36-3.18-4.44Z"/>
      <path class="cls-1" d="M123.51,51.68h-17.51V9.98c-.27-.78-.63-1.36-1.33-1.74-.71-.39-1.56-.58-2.56-.58s-1.86.19-2.56.58c-.71.39-1.06.97-.54,1.74v45.27c-.52.73-.2,1.31.44,1.74.64.43,1.39.65,2.26.68h21.82c.68-.03,1.22-.35,1.61-.99.39-.64.58-1.39.58-2.26s-.19-1.62-.58-2.26c-.39-.64-.92-.96-1.61-.49Z"/>
      <path class="cls-4" d="M38.63,33.85c0,12.82,10.99,23.21,24.55,23.21s24.55-10.39,24.55-23.21c0-3.04-.62-5.93-1.74-8.59.67,2.08,1.03,4.29,1.03,6.58,0,12.45-10.67,22.54-23.84,22.54s-23.84-10.09-23.84-22.54c0-2.29.36-4.5,1.03-6.58-1.12,2.66-1.74,5.55-1.74,8.59Z"/>
      <path class="cls-3" d="M66.04,0c-3.93,0-7.68.76-11.12,2.13,2.69-.82,5.55-1.27,8.51-1.27,16.11,0,29.17,13.06,29.17,29.17s-13.06,29.17-29.17,29.17c-2.96,0-5.82-.44-8.51-1.27,3.44,1.37,7.19,2.13,11.12,2.13,16.59,0,30.04-13.45,30.04-30.04S82.63,0,66.04,0Z"/>
      <path class="cls-5" d="M35.86,35.26c0-16.11,13.06-29.17,29.17-29.17,2.96,0,5.82.44,8.51,1.27-3.44-1.37-7.19-2.13-11.12-2.13-16.59,0-30.04,13.45-30.04,30.04s13.45,30.04,30.04,30.04c3.93,0,7.68-.76,11.12-2.13-2.69.82-5.55,1.27-8.51,1.27-16.11,0-29.17-13.06-29.17-29.17Z"/>
      <path class="cls-9" d="M89.97,31.72c0-12.82-10.99-23.21-24.55-23.21s-24.55,10.39-24.55,23.21c0,3.04.62,5.93,1.74,8.59-.67-2.08-1.03-4.29-1.03-6.58,0-12.45,10.67-22.54,23.84-22.54s23.84,10.09,23.84,22.54c0,2.29-.36,4.5-1.03,6.58,1.12-2.66,1.74-5.55,1.74-8.59Z"/>
      <path class="cls-7" d="M59.22,15.3c-7.34,2.16-12.7,8.94-12.7,16.98,0,9.78,7.93,17.71,17.71,17.71s17.71-7.93,17.71-17.71c0-8.04-5.36-14.82-12.7-16.98,4.21,2.4,7.14,7.71,7.14,13.89,0,8.43-5.44,15.26-12.15,15.26s-12.15-6.83-12.15-15.26c0-6.18,2.93-11.49,7.14-13.89Z"/>
      <path class="cls-6" d="M26.91,11.34c2.73,2.44,4.09,6.28,4.09,11.53v.55c0,5.25-1.41,9.1-4.23,11.56-2.82,2.46-6.57,3.69-11.24,3.69H7v16.6c0,.73-.34,1.31-1.02,1.74-.68.43-1.51.65-2.48.65s-1.74-.22-2.44-.65c-.7-.43-1.06-1.01-1.06-1.74V10.01c0-.64.25-1.19.76-1.64.51-.45,1.16-.68,1.95-.68h13.23c4.58,0,8.24,1.22,10.97,3.66ZM12.44,14.06c-5.06,0-9.16,4.1-9.16,9.16s4.1,9.16,9.16,9.16,9.16-4.1,9.16-9.16-4.1-9.16-9.16-9.16Z"/>
      <path class="cls-8" d="M201.87,53.98c.09.28.13.49.13.63,0,.84-.52,1.56-1.55,2.16-1.04.6-2.13.91-3.29.91-1.4,0-2.27-.48-2.61-1.45l-2.76-9.55h-16.39l-2.73,9.52c-.31.98-1.13,1.48-2.46,1.48-1.06,0-2.06-.29-2.99-.86-.93-.58-1.4-1.26-1.4-2.06,0-.27.02-.47.07-.6l13.24-43.21c.57-1.6,2.15-2.4,4.74-2.4s4.24.74,4.81,2.23l13.2,43.2ZM183.91,24.95c-5.06,0-9.16,4.1-9.16,9.16s4.1,9.16,9.16,9.16,9.16-4.1,9.16-9.16-4.1-9.16-9.16-9.16Z"/>
      <path class="cls-2" d="M237.53,53.44c0,.9-.46,1.73-1.37,2.5-.91.77-1.88,1.15-2.9,1.15-1.16,0-2.09-.7-2.8-2.09l-9.73-19.31h-6.73v18.84c0,.72-.34,1.29-1.03,1.72-.69.43-1.52.64-2.5.64s-1.75-.21-2.43-.64c-.69-.43-1.03-1-1.03-1.72V10.1c0-.46.19-1.16.47-1.52.47-.59,1.09-.89,1.86-.89h12.67c10.22,0,15.33,4.58,15.33,13.73,0,3.8-.84,6.78-2.53,8.95-1.69,2.17-3.98,3.61-6.87,4.32l9.33,17.74c.18.32.27.65.27,1.01ZM219.37,12.07c-5.06,0-9.16,4.1-9.16,9.16s4.1,9.16,9.16,9.16,9.16-4.1,9.16-9.16-4.1-9.16-9.16-9.16Z"/>
    </g>
  </g>
</svg>