<?xml version="1.0" encoding="UTF-8"?>
<svg id="Layer_2" data-name="Layer 2" xmlns="http://www.w3.org/2000/svg" xmlns:xlink="http://www.w3.org/1999/xlink" viewBox="0 0 63.69 65.3">
  <defs>
    <style>
      .cls-1 {
        fill: url(#linear-gradient-2);
      }

      .cls-2 {
        fill: url(#linear-gradient-4);
      }

      .cls-3 {
        fill: url(#linear-gradient-3);
      }

      .cls-4 {
        fill: url(#linear-gradient-5);
      }

      .cls-5 {
        fill: url(#linear-gradient);
      }
    </style>
    <linearGradient id="linear-gradient" x1="56.95" y1="52.19" x2="-4.26" y2="14.31" gradientUnits="userSpaceOnUse">
      <stop offset="0" stop-color="#4ac7ee"/>
      <stop offset="1" stop-color="#263b96"/>
    </linearGradient>
    <linearGradient id="linear-gradient-2" x1="60.53" y1="46.4" x2="-.68" y2="8.52" xlink:href="#linear-gradient"/>
    <linearGradient id="linear-gradient-3" x1="60.61" y1="46.26" x2="-.6" y2="8.39" xlink:href="#linear-gradient"/>
    <linearGradient id="linear-gradient-4" x1="56.78" y1="52.45" x2="-4.43" y2="14.58" xlink:href="#linear-gradient"/>
    <linearGradient id="linear-gradient-5" x1="58.61" y1="49.5" x2="-2.6" y2="11.63" xlink:href="#linear-gradient"/>
  </defs>
  <g id="Layer_1-2" data-name="Layer 1">
    <g>
      <g>
        <path class="cls-5" d="M3.47,35.26c0-16.11,13.06-29.17,29.17-29.17,2.96,0,5.82.44,8.51,1.27-3.44-1.37-7.19-2.13-11.12-2.13C13.45,5.23,0,18.67,0,35.26s13.45,30.04,30.04,30.04c3.93,0,7.68-.76,11.12-2.13-2.69.82-5.55,1.27-8.51,1.27-16.11,0-29.17-13.06-29.17-29.17Z"/>
        <path class="cls-1" d="M33.65,0c-3.93,0-7.68.76-11.12,2.13,2.69-.82,5.55-1.27,8.51-1.27,16.11,0,29.17,13.06,29.17,29.17s-13.06,29.17-29.17,29.17c-2.96,0-5.82-.44-8.51-1.27,3.44,1.37,7.19,2.13,11.12,2.13,16.59,0,30.04-13.45,30.04-30.04S50.24,0,33.65,0Z"/>
        <path class="cls-3" d="M57.58,31.72c0-12.82-10.99-23.21-24.55-23.21S8.49,18.9,8.49,31.72c0,3.04.62,5.93,1.74,8.59-.67-2.08-1.03-4.29-1.03-6.58,0-12.45,10.67-22.54,23.84-22.54s23.84,10.09,23.84,22.54c0,2.29-.36,4.5-1.03,6.58,1.12-2.66,1.74-5.55,1.74-8.59Z"/>
        <path class="cls-2" d="M6.25,33.85c0,12.82,10.99,23.21,24.55,23.21s24.55-10.39,24.55-23.21c0-3.04-.62-5.93-1.74-8.59.67,2.08,1.03,4.29,1.03,6.58,0,12.45-10.67,22.54-23.84,22.54S6.96,44.29,6.96,31.84c0-2.29.36-4.5,1.03-6.58-1.12,2.66-1.74,5.55-1.74,8.59Z"/>
      </g>
      <path class="cls-4" d="M35.81,15.3c4.21,2.4,7.14,7.71,7.14,13.89,0,8.43-5.44,15.26-12.15,15.26s-12.15-6.83-12.15-15.26c0-6.18,2.93-11.49,7.14-13.89-7.34,2.16-12.7,8.94-12.7,16.98,0,9.78,7.93,17.71,17.71,17.71s17.71-7.93,17.71-17.71c0-8.04-5.36-14.82-12.7-16.98Z"/>
    </g>
  </g>
</svg>